<?xml version="1.0" encoding="UTF-8"?><svg xmlns="http://www.w3.org/2000/svg" xmlns:xlink="http://www.w3.org/1999/xlink" fill-opacity="1" color-rendering="auto" color-interpolation="auto" text-rendering="auto" stroke="black" stroke-linecap="square" width="1959" stroke-miterlimit="10" shape-rendering="auto" stroke-opacity="1" fill="black" stroke-dasharray="none" font-weight="normal" stroke-width="1" height="1655" font-family="'Dialog'" font-style="normal" stroke-linejoin="miter" font-size="12px" stroke-dashoffset="0" image-rendering="auto">
  <!--Generated by ySVG 2.6-->
  <defs id="genericDefs"/>
  <g>
    <defs id="defs1">
      <clipPath clipPathUnits="userSpaceOnUse" id="clipPath1">
        <path d="M0 0 L1959 0 L1959 1655 L0 1655 L0 0 Z"/>
      </clipPath>
      <clipPath clipPathUnits="userSpaceOnUse" id="clipPath2">
        <path d="M-15 -15 L1944 -15 L1944 1640 L-15 1640 L-15 -15 Z"/>
      </clipPath>
    </defs>
    <g fill="white" text-rendering="geometricPrecision" shape-rendering="geometricPrecision" transform="translate(15,15)" stroke="white">
      <rect x="-15" width="1959" height="1655" y="-15" clip-path="url(#clipPath2)" stroke="none"/>
    </g>
    <g fill="red" text-rendering="geometricPrecision" shape-rendering="geometricPrecision" transform="matrix(1,0,0,1,15,15)" stroke="red">
      <path d="M1877.5 122.5 L1882 115.2942 L1890.4904 115 L1886.5 107.5 L1890.4904 100 L1882 99.7058 L1877.5 92.5 L1873 99.7058 L1864.5095 100 L1868.5 107.5 L1864.5095 115 L1873 115.2942 Z" fill-rule="evenodd" clip-path="url(#clipPath2)" stroke="none"/>
    </g>
    <g text-rendering="geometricPrecision" stroke-miterlimit="1.45" shape-rendering="geometricPrecision" font-family="sans-serif" transform="matrix(1,0,0,1,15,15)" stroke-linecap="butt">
      <text x="1828.0645" xml:space="preserve" y="112.0352" clip-path="url(#clipPath2)" stroke="none">F14 S/S Breeders</text>
      <path fill="none" d="M1877.5 122.5 L1882 115.2942 L1890.4904 115 L1886.5 107.5 L1890.4904 100 L1882 99.7058 L1877.5 92.5 L1873 99.7058 L1864.5095 100 L1868.5 107.5 L1864.5095 115 L1873 115.2942 Z" clip-path="url(#clipPath2)" fill-rule="evenodd"/>
    </g>
    <g fill="rgb(255,128,128)" text-rendering="geometricPrecision" shape-rendering="geometricPrecision" transform="matrix(1,0,0,1,15,15)" stroke="rgb(255,128,128)">
      <rect x="1607.5" width="30" height="30" y="92.5" clip-path="url(#clipPath2)" stroke="none"/>
    </g>
    <g text-rendering="geometricPrecision" stroke-miterlimit="1.45" shape-rendering="geometricPrecision" font-family="sans-serif" transform="matrix(1,0,0,1,15,15)" stroke-linecap="butt">
      <text x="1591.5801" xml:space="preserve" y="112.0352" clip-path="url(#clipPath2)" stroke="none">Segment 1</text>
      <rect fill="none" x="1607.5" width="30" height="30" y="92.5" clip-path="url(#clipPath2)"/>
    </g>
    <g fill="rgb(255,128,128)" text-rendering="geometricPrecision" shape-rendering="geometricPrecision" transform="matrix(1,0,0,1,15,15)" stroke="rgb(255,128,128)">
      <rect x="1397.5" width="30" height="30" y="92.5" clip-path="url(#clipPath2)" stroke="none"/>
    </g>
    <g text-rendering="geometricPrecision" stroke-miterlimit="1.45" shape-rendering="geometricPrecision" font-family="sans-serif" transform="matrix(1,0,0,1,15,15)" stroke-linecap="butt">
      <text x="1381.5801" xml:space="preserve" y="112.0352" clip-path="url(#clipPath2)" stroke="none">Segment 2</text>
      <rect fill="none" x="1397.5" width="30" height="30" y="92.5" clip-path="url(#clipPath2)"/>
    </g>
    <g fill="rgb(255,128,128)" text-rendering="geometricPrecision" shape-rendering="geometricPrecision" transform="matrix(1,0,0,1,15,15)" stroke="rgb(255,128,128)">
      <rect x="1187.5" width="30" height="30" y="92.5" clip-path="url(#clipPath2)" stroke="none"/>
    </g>
    <g text-rendering="geometricPrecision" stroke-miterlimit="1.45" shape-rendering="geometricPrecision" font-family="sans-serif" transform="matrix(1,0,0,1,15,15)" stroke-linecap="butt">
      <text x="1171.5801" xml:space="preserve" y="112.0352" clip-path="url(#clipPath2)" stroke="none">Segment 2</text>
      <rect fill="none" x="1187.5" width="30" height="30" y="92.5" clip-path="url(#clipPath2)"/>
    </g>
    <g fill="rgb(255,128,128)" text-rendering="geometricPrecision" shape-rendering="geometricPrecision" transform="matrix(1,0,0,1,15,15)" stroke="rgb(255,128,128)">
      <rect x="977.5" width="30" height="30" y="92.5" clip-path="url(#clipPath2)" stroke="none"/>
    </g>
    <g text-rendering="geometricPrecision" stroke-miterlimit="1.45" shape-rendering="geometricPrecision" font-family="sans-serif" transform="matrix(1,0,0,1,15,15)" stroke-linecap="butt">
      <text x="961.5801" xml:space="preserve" y="112.0352" clip-path="url(#clipPath2)" stroke="none">Segment 3</text>
      <rect fill="none" x="977.5" width="30" height="30" y="92.5" clip-path="url(#clipPath2)"/>
    </g>
    <g fill="gray" text-rendering="geometricPrecision" shape-rendering="geometricPrecision" transform="matrix(1,0,0,1,15,15)" stroke="gray">
      <circle r="2.5" clip-path="url(#clipPath2)" cx="992.5" cy="2.5" stroke="none"/>
    </g>
    <g text-rendering="geometricPrecision" stroke-miterlimit="1.45" shape-rendering="geometricPrecision" transform="matrix(1,0,0,1,15,15)" stroke-linecap="butt">
      <circle fill="none" r="2.5" clip-path="url(#clipPath2)" cx="992.5" cy="2.5"/>
    </g>
    <g fill="gray" text-rendering="geometricPrecision" shape-rendering="geometricPrecision" transform="matrix(1,0,0,1,15,15)" stroke="gray">
      <circle r="2.5" clip-path="url(#clipPath2)" cx="407.5" cy="107.5" stroke="none"/>
    </g>
    <g text-rendering="geometricPrecision" stroke-miterlimit="1.45" shape-rendering="geometricPrecision" transform="matrix(1,0,0,1,15,15)" stroke-linecap="butt">
      <circle fill="none" r="2.5" clip-path="url(#clipPath2)" cx="407.5" cy="107.5"/>
    </g>
    <g fill="gray" text-rendering="geometricPrecision" shape-rendering="geometricPrecision" transform="matrix(1,0,0,1,15,15)" stroke="gray">
      <circle r="2.5" clip-path="url(#clipPath2)" cx="542.5" cy="212.5" stroke="none"/>
    </g>
    <g text-rendering="geometricPrecision" stroke-miterlimit="1.45" shape-rendering="geometricPrecision" transform="matrix(1,0,0,1,15,15)" stroke-linecap="butt">
      <circle fill="none" r="2.5" clip-path="url(#clipPath2)" cx="542.5" cy="212.5"/>
    </g>
    <g fill="rgb(255,128,128)" text-rendering="geometricPrecision" shape-rendering="geometricPrecision" transform="matrix(1,0,0,1,15,15)" stroke="rgb(255,128,128)">
      <rect x="527.5" width="30" height="30" y="512.5" clip-path="url(#clipPath2)" stroke="none"/>
    </g>
    <g text-rendering="geometricPrecision" stroke-miterlimit="1.45" shape-rendering="geometricPrecision" font-family="sans-serif" transform="matrix(1,0,0,1,15,15)" stroke-linecap="butt">
      <text x="511.5801" xml:space="preserve" y="532.0352" clip-path="url(#clipPath2)" stroke="none">Segment 5</text>
      <rect fill="none" x="527.5" width="30" height="30" y="512.5" clip-path="url(#clipPath2)"/>
    </g>
    <g fill="gray" text-rendering="geometricPrecision" shape-rendering="geometricPrecision" transform="matrix(1,0,0,1,15,15)" stroke="gray">
      <circle r="2.5" clip-path="url(#clipPath2)" cx="992.5" cy="422.5" stroke="none"/>
    </g>
    <g text-rendering="geometricPrecision" stroke-miterlimit="1.45" shape-rendering="geometricPrecision" transform="matrix(1,0,0,1,15,15)" stroke-linecap="butt">
      <circle fill="none" r="2.5" clip-path="url(#clipPath2)" cx="992.5" cy="422.5"/>
    </g>
    <g fill="gray" text-rendering="geometricPrecision" shape-rendering="geometricPrecision" transform="matrix(1,0,0,1,15,15)" stroke="gray">
      <circle r="2.5" clip-path="url(#clipPath2)" cx="542.5" cy="317.5" stroke="none"/>
    </g>
    <g text-rendering="geometricPrecision" stroke-miterlimit="1.45" shape-rendering="geometricPrecision" transform="matrix(1,0,0,1,15,15)" stroke-linecap="butt">
      <circle fill="none" r="2.5" clip-path="url(#clipPath2)" cx="542.5" cy="317.5"/>
    </g>
    <g fill="gray" text-rendering="geometricPrecision" shape-rendering="geometricPrecision" transform="matrix(1,0,0,1,15,15)" stroke="gray">
      <circle r="2.5" clip-path="url(#clipPath2)" cx="992.5" cy="527.5" stroke="none"/>
    </g>
    <g text-rendering="geometricPrecision" stroke-miterlimit="1.45" shape-rendering="geometricPrecision" transform="matrix(1,0,0,1,15,15)" stroke-linecap="butt">
      <circle fill="none" r="2.5" clip-path="url(#clipPath2)" cx="992.5" cy="527.5"/>
    </g>
    <g fill="rgb(255,128,128)" text-rendering="geometricPrecision" shape-rendering="geometricPrecision" transform="matrix(1,0,0,1,15,15)" stroke="rgb(255,128,128)">
      <rect x="317.5" width="30" height="30" y="512.5" clip-path="url(#clipPath2)" stroke="none"/>
    </g>
    <g text-rendering="geometricPrecision" stroke-miterlimit="1.45" shape-rendering="geometricPrecision" font-family="sans-serif" transform="matrix(1,0,0,1,15,15)" stroke-linecap="butt">
      <text x="301.5801" xml:space="preserve" y="532.0352" clip-path="url(#clipPath2)" stroke="none">Segment 4</text>
      <rect fill="none" x="317.5" width="30" height="30" y="512.5" clip-path="url(#clipPath2)"/>
    </g>
    <g fill="gray" text-rendering="geometricPrecision" shape-rendering="geometricPrecision" transform="matrix(1,0,0,1,15,15)" stroke="gray">
      <circle r="2.5" clip-path="url(#clipPath2)" cx="332.5" cy="632.5" stroke="none"/>
    </g>
    <g text-rendering="geometricPrecision" stroke-miterlimit="1.45" shape-rendering="geometricPrecision" transform="matrix(1,0,0,1,15,15)" stroke-linecap="butt">
      <circle fill="none" r="2.5" clip-path="url(#clipPath2)" cx="332.5" cy="632.5"/>
    </g>
    <g fill="gray" text-rendering="geometricPrecision" shape-rendering="geometricPrecision" transform="matrix(1,0,0,1,15,15)" stroke="gray">
      <circle r="2.5" clip-path="url(#clipPath2)" cx="332.5" cy="422.5" stroke="none"/>
    </g>
    <g text-rendering="geometricPrecision" stroke-miterlimit="1.45" shape-rendering="geometricPrecision" transform="matrix(1,0,0,1,15,15)" stroke-linecap="butt">
      <circle fill="none" r="2.5" clip-path="url(#clipPath2)" cx="332.5" cy="422.5"/>
    </g>
    <g fill="gray" text-rendering="geometricPrecision" shape-rendering="geometricPrecision" transform="matrix(1,0,0,1,15,15)" stroke="gray">
      <circle r="2.5" clip-path="url(#clipPath2)" cx="332.5" cy="317.5" stroke="none"/>
    </g>
    <g text-rendering="geometricPrecision" stroke-miterlimit="1.45" shape-rendering="geometricPrecision" transform="matrix(1,0,0,1,15,15)" stroke-linecap="butt">
      <circle fill="none" r="2.5" clip-path="url(#clipPath2)" cx="332.5" cy="317.5"/>
    </g>
    <g fill="gray" text-rendering="geometricPrecision" shape-rendering="geometricPrecision" transform="matrix(1,0,0,1,15,15)" stroke="gray">
      <circle r="2.5" clip-path="url(#clipPath2)" cx="332.5" cy="212.5" stroke="none"/>
    </g>
    <g text-rendering="geometricPrecision" stroke-miterlimit="1.45" shape-rendering="geometricPrecision" transform="matrix(1,0,0,1,15,15)" stroke-linecap="butt">
      <circle fill="none" r="2.5" clip-path="url(#clipPath2)" cx="332.5" cy="212.5"/>
    </g>
    <g fill="gray" text-rendering="geometricPrecision" shape-rendering="geometricPrecision" transform="matrix(1,0,0,1,15,15)" stroke="gray">
      <circle r="2.5" clip-path="url(#clipPath2)" cx="152.5" cy="527.5" stroke="none"/>
    </g>
    <g text-rendering="geometricPrecision" stroke-miterlimit="1.45" shape-rendering="geometricPrecision" transform="matrix(1,0,0,1,15,15)" stroke-linecap="butt">
      <circle fill="none" r="2.5" clip-path="url(#clipPath2)" cx="152.5" cy="527.5"/>
    </g>
    <g fill="gray" text-rendering="geometricPrecision" shape-rendering="geometricPrecision" transform="matrix(1,0,0,1,15,15)" stroke="gray">
      <circle r="2.5" clip-path="url(#clipPath2)" cx="2.5" cy="527.5" stroke="none"/>
    </g>
    <g text-rendering="geometricPrecision" stroke-miterlimit="1.45" shape-rendering="geometricPrecision" transform="matrix(1,0,0,1,15,15)" stroke-linecap="butt">
      <circle fill="none" r="2.5" clip-path="url(#clipPath2)" cx="2.5" cy="527.5"/>
    </g>
    <g fill="rgb(255,128,128)" text-rendering="geometricPrecision" shape-rendering="geometricPrecision" transform="matrix(1,0,0,1,15,15)" stroke="rgb(255,128,128)">
      <rect x="527.5" width="30" height="30" y="617.5" clip-path="url(#clipPath2)" stroke="none"/>
    </g>
    <g text-rendering="geometricPrecision" stroke-miterlimit="1.45" shape-rendering="geometricPrecision" font-family="sans-serif" transform="matrix(1,0,0,1,15,15)" stroke-linecap="butt">
      <text x="511.5801" xml:space="preserve" y="637.0352" clip-path="url(#clipPath2)" stroke="none">Segment 7</text>
      <rect fill="none" x="527.5" width="30" height="30" y="617.5" clip-path="url(#clipPath2)"/>
    </g>
    <g fill="rgb(255,128,128)" text-rendering="geometricPrecision" shape-rendering="geometricPrecision" transform="matrix(1,0,0,1,15,15)" stroke="rgb(255,128,128)">
      <rect x="527.5" width="30" height="30" y="722.5" clip-path="url(#clipPath2)" stroke="none"/>
    </g>
    <g text-rendering="geometricPrecision" stroke-miterlimit="1.45" shape-rendering="geometricPrecision" font-family="sans-serif" transform="matrix(1,0,0,1,15,15)" stroke-linecap="butt">
      <text x="511.5801" xml:space="preserve" y="742.0352" clip-path="url(#clipPath2)" stroke="none">Segment 7</text>
      <rect fill="none" x="527.5" width="30" height="30" y="722.5" clip-path="url(#clipPath2)"/>
    </g>
    <g fill="rgb(255,128,128)" text-rendering="geometricPrecision" shape-rendering="geometricPrecision" transform="matrix(1,0,0,1,15,15)" stroke="rgb(255,128,128)">
      <rect x="797.5" width="30" height="30" y="1247.5" clip-path="url(#clipPath2)" stroke="none"/>
    </g>
    <g text-rendering="geometricPrecision" stroke-miterlimit="1.45" shape-rendering="geometricPrecision" font-family="sans-serif" transform="matrix(1,0,0,1,15,15)" stroke-linecap="butt">
      <text x="781.5801" xml:space="preserve" y="1267.0352" clip-path="url(#clipPath2)" stroke="none">Segment 8</text>
      <rect fill="none" x="797.5" width="30" height="30" y="1247.5" clip-path="url(#clipPath2)"/>
    </g>
    <g fill="rgb(255,128,128)" text-rendering="geometricPrecision" shape-rendering="geometricPrecision" transform="matrix(1,0,0,1,15,15)" stroke="rgb(255,128,128)">
      <rect x="527.5" width="30" height="30" y="1247.5" clip-path="url(#clipPath2)" stroke="none"/>
    </g>
    <g text-rendering="geometricPrecision" stroke-miterlimit="1.45" shape-rendering="geometricPrecision" font-family="sans-serif" transform="matrix(1,0,0,1,15,15)" stroke-linecap="butt">
      <text x="511.5801" xml:space="preserve" y="1267.0352" clip-path="url(#clipPath2)" stroke="none">Segment 8</text>
      <rect fill="none" x="527.5" width="30" height="30" y="1247.5" clip-path="url(#clipPath2)"/>
    </g>
    <g fill="gray" text-rendering="geometricPrecision" shape-rendering="geometricPrecision" transform="matrix(1,0,0,1,15,15)" stroke="gray">
      <circle r="2.5" clip-path="url(#clipPath2)" cx="362.5" cy="1262.5" stroke="none"/>
    </g>
    <g text-rendering="geometricPrecision" stroke-miterlimit="1.45" shape-rendering="geometricPrecision" transform="matrix(1,0,0,1,15,15)" stroke-linecap="butt">
      <circle fill="none" r="2.5" clip-path="url(#clipPath2)" cx="362.5" cy="1262.5"/>
    </g>
    <g fill="rgb(255,128,128)" text-rendering="geometricPrecision" shape-rendering="geometricPrecision" transform="matrix(1,0,0,1,15,15)" stroke="rgb(255,128,128)">
      <rect x="527.5" width="30" height="30" y="1142.5" clip-path="url(#clipPath2)" stroke="none"/>
    </g>
    <g text-rendering="geometricPrecision" stroke-miterlimit="1.45" shape-rendering="geometricPrecision" font-family="sans-serif" transform="matrix(1,0,0,1,15,15)" stroke-linecap="butt">
      <text x="511.5801" xml:space="preserve" y="1162.0352" clip-path="url(#clipPath2)" stroke="none">Segment 9</text>
      <rect fill="none" x="527.5" width="30" height="30" y="1142.5" clip-path="url(#clipPath2)"/>
    </g>
    <g fill="gray" text-rendering="geometricPrecision" shape-rendering="geometricPrecision" transform="matrix(1,0,0,1,15,15)" stroke="gray">
      <circle r="2.5" clip-path="url(#clipPath2)" cx="752.5" cy="1157.5" stroke="none"/>
    </g>
    <g text-rendering="geometricPrecision" stroke-miterlimit="1.45" shape-rendering="geometricPrecision" font-family="sans-serif" transform="matrix(1,0,0,1,15,15)" stroke-linecap="butt">
      <text x="734.1777" xml:space="preserve" y="1162.0352" clip-path="url(#clipPath2)" stroke="none">34/19</text>
      <circle fill="none" r="2.5" clip-path="url(#clipPath2)" cx="752.5" cy="1157.5"/>
    </g>
    <g fill="gray" text-rendering="geometricPrecision" shape-rendering="geometricPrecision" transform="matrix(1,0,0,1,15,15)" stroke="gray">
      <circle r="2.5" clip-path="url(#clipPath2)" cx="332.5" cy="1157.5" stroke="none"/>
    </g>
    <g text-rendering="geometricPrecision" stroke-miterlimit="1.45" shape-rendering="geometricPrecision" font-family="sans-serif" transform="matrix(1,0,0,1,15,15)" stroke-linecap="butt">
      <text x="314.1777" xml:space="preserve" y="1162.0352" clip-path="url(#clipPath2)" stroke="none">22/17</text>
      <circle fill="none" r="2.5" clip-path="url(#clipPath2)" cx="332.5" cy="1157.5"/>
    </g>
    <g fill="rgb(255,128,128)" text-rendering="geometricPrecision" shape-rendering="geometricPrecision" transform="matrix(1,0,0,1,15,15)" stroke="rgb(255,128,128)">
      <rect x="527.5" width="30" height="30" y="1037.5" clip-path="url(#clipPath2)" stroke="none"/>
    </g>
    <g text-rendering="geometricPrecision" stroke-miterlimit="1.45" shape-rendering="geometricPrecision" font-family="sans-serif" transform="matrix(1,0,0,1,15,15)" stroke-linecap="butt">
      <text x="511.5801" xml:space="preserve" y="1057.0352" clip-path="url(#clipPath2)" stroke="none">Segment 9</text>
      <rect fill="none" x="527.5" width="30" height="30" y="1037.5" clip-path="url(#clipPath2)"/>
    </g>
    <g fill="red" text-rendering="geometricPrecision" shape-rendering="geometricPrecision" transform="matrix(1,0,0,1,15,15)" stroke="red">
      <path d="M542.5 962.4999 L547 955.2943 L555.4904 954.9999 L551.5 947.5001 L555.4904 940.0001 L547 939.7058 L542.5 932.4999 L538 939.7058 L529.5096 940.0001 L533.5 947.5001 L529.5096 954.9999 L538 955.2943 Z" fill-rule="evenodd" clip-path="url(#clipPath2)" stroke="none"/>
    </g>
    <g text-rendering="geometricPrecision" stroke-miterlimit="1.45" shape-rendering="geometricPrecision" font-family="sans-serif" transform="matrix(1,0,0,1,15,15)" stroke-linecap="butt">
      <text x="476.4824" xml:space="preserve" y="952.0352" clip-path="url(#clipPath2)" stroke="none">F7 S/S Buckingham Pls</text>
      <path fill="none" d="M542.5 962.4999 L547 955.2943 L555.4904 954.9999 L551.5 947.5001 L555.4904 940.0001 L547 939.7058 L542.5 932.4999 L538 939.7058 L529.5096 940.0001 L533.5 947.5001 L529.5096 954.9999 L538 955.2943 Z" clip-path="url(#clipPath2)" fill-rule="evenodd"/>
    </g>
    <g fill="rgb(255,128,128)" text-rendering="geometricPrecision" shape-rendering="geometricPrecision" transform="matrix(1,0,0,1,15,15)" stroke="rgb(255,128,128)">
      <rect x="527.5" width="30" height="30" y="1352.5" clip-path="url(#clipPath2)" stroke="none"/>
    </g>
    <g text-rendering="geometricPrecision" stroke-miterlimit="1.45" shape-rendering="geometricPrecision" font-family="sans-serif" transform="matrix(1,0,0,1,15,15)" stroke-linecap="butt">
      <text x="507.7861" xml:space="preserve" y="1372.0352" clip-path="url(#clipPath2)" stroke="none">Segment 10</text>
      <rect fill="none" x="527.5" width="30" height="30" y="1352.5" clip-path="url(#clipPath2)"/>
    </g>
    <g fill="gray" text-rendering="geometricPrecision" shape-rendering="geometricPrecision" transform="matrix(1,0,0,1,15,15)" stroke="gray">
      <circle r="2.5" clip-path="url(#clipPath2)" cx="542.5" cy="1412.5" stroke="none"/>
    </g>
    <g text-rendering="geometricPrecision" stroke-miterlimit="1.45" shape-rendering="geometricPrecision" transform="matrix(1,0,0,1,15,15)" stroke-linecap="butt">
      <circle fill="none" r="2.5" clip-path="url(#clipPath2)" cx="542.5" cy="1412.5"/>
    </g>
    <g fill="gray" text-rendering="geometricPrecision" shape-rendering="geometricPrecision" transform="matrix(1,0,0,1,15,15)" stroke="gray">
      <circle r="2.5" clip-path="url(#clipPath2)" cx="692.5" cy="1412.5" stroke="none"/>
    </g>
    <g text-rendering="geometricPrecision" stroke-miterlimit="1.45" shape-rendering="geometricPrecision" transform="matrix(1,0,0,1,15,15)" stroke-linecap="butt">
      <circle fill="none" r="2.5" clip-path="url(#clipPath2)" cx="692.5" cy="1412.5"/>
    </g>
    <g fill="gray" text-rendering="geometricPrecision" shape-rendering="geometricPrecision" transform="matrix(1,0,0,1,15,15)" stroke="gray">
      <circle r="2.5" clip-path="url(#clipPath2)" cx="542.5" cy="1517.5" stroke="none"/>
    </g>
    <g text-rendering="geometricPrecision" stroke-miterlimit="1.45" shape-rendering="geometricPrecision" transform="matrix(1,0,0,1,15,15)" stroke-linecap="butt">
      <circle fill="none" r="2.5" clip-path="url(#clipPath2)" cx="542.5" cy="1517.5"/>
    </g>
    <g fill="gray" text-rendering="geometricPrecision" shape-rendering="geometricPrecision" transform="matrix(1,0,0,1,15,15)" stroke="gray">
      <circle r="2.5" clip-path="url(#clipPath2)" cx="542.5" cy="1622.5" stroke="none"/>
    </g>
    <g text-rendering="geometricPrecision" stroke-miterlimit="1.45" shape-rendering="geometricPrecision" transform="matrix(1,0,0,1,15,15)" stroke-linecap="butt">
      <circle fill="none" r="2.5" clip-path="url(#clipPath2)" cx="542.5" cy="1622.5"/>
    </g>
    <g fill="red" text-rendering="geometricPrecision" shape-rendering="geometricPrecision" transform="matrix(1,0,0,1,15,15)" stroke="red">
      <path d="M542.5001 857.5 L547.0001 850.2943 L555.4904 850 L551.5001 842.5002 L555.4904 835.0002 L547.0001 834.7059 L542.5001 827.5 L538.0001 834.7059 L529.5097 835.0002 L533.5001 842.5002 L529.5097 850 L538.0001 850.2943 Z" fill-rule="evenodd" clip-path="url(#clipPath2)" stroke="none"/>
    </g>
    <g text-rendering="geometricPrecision" stroke-miterlimit="1.45" shape-rendering="geometricPrecision" font-family="sans-serif" transform="matrix(1,0,0,1,15,15)" stroke-linecap="butt">
      <text x="472.6885" xml:space="preserve" y="847.0352" clip-path="url(#clipPath2)" stroke="none">F13 S/S Buckingham Pls</text>
      <path fill="none" d="M542.5001 857.5 L547.0001 850.2943 L555.4904 850 L551.5001 842.5002 L555.4904 835.0002 L547.0001 834.7059 L542.5001 827.5 L538.0001 834.7059 L529.5097 835.0002 L533.5001 842.5002 L529.5097 850 L538.0001 850.2943 Z" clip-path="url(#clipPath2)" fill-rule="evenodd"/>
    </g>
    <g fill="rgb(255,128,128)" text-rendering="geometricPrecision" shape-rendering="geometricPrecision" transform="matrix(1,0,0,1,15,15)" stroke="rgb(255,128,128)">
      <rect x="797.5" width="30" height="30" y="512.5" clip-path="url(#clipPath2)" stroke="none"/>
    </g>
    <g text-rendering="geometricPrecision" stroke-miterlimit="1.45" shape-rendering="geometricPrecision" font-family="sans-serif" transform="matrix(1,0,0,1,15,15)" stroke-linecap="butt">
      <text x="781.5801" xml:space="preserve" y="532.0352" clip-path="url(#clipPath2)" stroke="none">Segment 6</text>
      <rect fill="none" x="797.5" width="30" height="30" y="512.5" clip-path="url(#clipPath2)"/>
    </g>
    <g fill="gray" text-rendering="geometricPrecision" shape-rendering="geometricPrecision" transform="matrix(1,0,0,1,15,15)" stroke="gray">
      <circle r="2.5" clip-path="url(#clipPath2)" cx="542.5" cy="422.5" stroke="none"/>
    </g>
    <g text-rendering="geometricPrecision" stroke-miterlimit="1.45" shape-rendering="geometricPrecision" transform="matrix(1,0,0,1,15,15)" stroke-linecap="butt">
      <circle fill="none" r="2.5" clip-path="url(#clipPath2)" cx="542.5" cy="422.5"/>
      <path fill="none" d="M1868.4688 107.5 L1637.5 107.5" clip-path="url(#clipPath2)" stroke="red"/>
      <text x="1692.2002" xml:space="preserve" y="100.9688" clip-path="url(#clipPath2)" font-family="sans-serif" stroke="none">FSW14 S/S Breeders</text>
      <path fill="none" d="M1607.4561 107.5 L1427.5 107.5" clip-path="url(#clipPath2)" stroke="red"/>
      <text x="1484.1836" xml:space="preserve" y="100.9688" clip-path="url(#clipPath2)" font-family="sans-serif" stroke="none">REC-14-12</text>
      <path fill="none" d="M1397.4561 107.5 L1217.5 107.5" clip-path="url(#clipPath2)" stroke="lime"/>
      <text x="1270.3926" xml:space="preserve" y="100.9688" clip-path="url(#clipPath2)" font-family="sans-serif" stroke="none">DS-141/189</text>
      <path fill="none" d="M1187.4561 107.5 L1007.5 107.5" clip-path="url(#clipPath2)" stroke="red"/>
      <text x="1064.1836" xml:space="preserve" y="100.9688" clip-path="url(#clipPath2)" font-family="sans-serif" stroke="none">REC-14-13</text>
      <path fill="none" d="M992.5 92.4573 L992.5 5" clip-path="url(#clipPath2)" stroke="lime"/>
      <text x="907.9922" xml:space="preserve" y="53.2852" clip-path="url(#clipPath2)" font-family="sans-serif" stroke="none">DS-129/11/1</text>
      <path fill="none" d="M977.4653 107.5 L410 107.5" clip-path="url(#clipPath2)" stroke="lime"/>
      <text x="422.125" xml:space="preserve" y="100.9688" clip-path="url(#clipPath2)" font-family="sans-serif" stroke="none">DS-123/9/1</text>
      <path fill="none" d="M977.4734 112.5 L542.5 112.5 L542.5 210" clip-path="url(#clipPath2)" stroke="lime"/>
      <text x="465.5801" xml:space="preserve" y="195.3438" clip-path="url(#clipPath2)" font-family="sans-serif" stroke="none">DS-107/8/2</text>
      <path fill="none" d="M992.5 122.5 L992.5 420" clip-path="url(#clipPath2)" stroke="lime"/>
      <text x="921.873" xml:space="preserve" y="405.3438" clip-path="url(#clipPath2)" font-family="sans-serif" stroke="none">DS-60/228</text>
    </g>
    <g stroke-linecap="round" transform="matrix(1,0,0,1,15,15)" stroke-dashoffset="2" fill="lime" text-rendering="geometricPrecision" shape-rendering="geometricPrecision" stroke-dasharray="0,4" stroke="lime" stroke-miterlimit="1.45">
      <path fill="none" d="M542.5 215 L542.5 315" clip-path="url(#clipPath2)"/>
    </g>
    <g text-rendering="geometricPrecision" stroke-miterlimit="1.45" shape-rendering="geometricPrecision" font-family="sans-serif" transform="matrix(1,0,0,1,15,15)" stroke-linecap="butt">
      <text x="493.3418" xml:space="preserve" y="269.5352" clip-path="url(#clipPath2)" stroke="none">DS-111</text>
    </g>
    <g stroke-linecap="round" transform="matrix(1,0,0,1,15,15)" stroke-dashoffset="2" fill="lime" text-rendering="geometricPrecision" shape-rendering="geometricPrecision" stroke-dasharray="0,4" stroke="lime" stroke-miterlimit="1.45">
      <path fill="none" d="M992.5 425 L992.5 525" clip-path="url(#clipPath2)"/>
    </g>
    <g text-rendering="geometricPrecision" stroke-miterlimit="1.45" shape-rendering="geometricPrecision" font-family="sans-serif" transform="matrix(1,0,0,1,15,15)" stroke-linecap="butt">
      <text x="943.3418" xml:space="preserve" y="479.5352" clip-path="url(#clipPath2)" stroke="none">DS-146</text>
      <path fill="none" d="M347.5 527.5 L527.4561 527.5" clip-path="url(#clipPath2)" stroke="red"/>
      <text x="407.9775" xml:space="preserve" y="520.9688" clip-path="url(#clipPath2)" stroke="none">REC-7-15</text>
      <path fill="none" d="M332.5 542.5 L332.5 630" clip-path="url(#clipPath2)" stroke="lime"/>
      <text x="263.168" xml:space="preserve" y="590.7852" clip-path="url(#clipPath2)" stroke="none">DS-90/8/1</text>
      <path fill="none" d="M332.5 512.4573 L332.5 425" clip-path="url(#clipPath2)" stroke="lime"/>
      <text x="247.9922" xml:space="preserve" y="473.2852" clip-path="url(#clipPath2)" stroke="none">DS-133/10/1</text>
      <path fill="none" d="M332.5 420 L332.5 320" clip-path="url(#clipPath2)" stroke="lime"/>
      <text x="247.9922" xml:space="preserve" y="374.5352" clip-path="url(#clipPath2)" stroke="none">DS-134/10/5</text>
      <path fill="none" d="M332.5 315 L332.5 215" clip-path="url(#clipPath2)" stroke="lime"/>
      <text x="247.9922" xml:space="preserve" y="269.5352" clip-path="url(#clipPath2)" stroke="none">DS-135/10/6</text>
      <path fill="none" d="M317.4603 527.5 L155 527.5" clip-path="url(#clipPath2)" stroke="lime"/>
      <text x="199.1426" xml:space="preserve" y="520.9688" clip-path="url(#clipPath2)" stroke="none">DS-165/117</text>
      <path fill="none" d="M150 527.5 L5 527.5" clip-path="url(#clipPath2)" stroke="lime"/>
      <text x="37.2461" xml:space="preserve" y="520.9688" clip-path="url(#clipPath2)" stroke="none">DS-190/19/1</text>
      <path fill="none" d="M542.5 542.5 L542.5 617.4634" clip-path="url(#clipPath2)" stroke="red"/>
      <text x="479.4551" xml:space="preserve" y="584.5352" clip-path="url(#clipPath2)" stroke="none">REC-7-18</text>
      <path fill="none" d="M542.5 647.5 L542.5 722.4634" clip-path="url(#clipPath2)" stroke="lime"/>
      <text x="457.9922" xml:space="preserve" y="689.5352" clip-path="url(#clipPath2)" stroke="none">DS-208/27/1</text>
      <path fill="none" d="M797.4707 1262.5 L557.5 1262.5" clip-path="url(#clipPath2)" stroke="lime"/>
      <text x="647.9805" xml:space="preserve" y="1255.9688" clip-path="url(#clipPath2)" stroke="none">DS-26/84</text>
      <path fill="none" d="M527.4603 1262.5 L365 1262.5" clip-path="url(#clipPath2)" stroke="lime"/>
      <text x="405.9961" xml:space="preserve" y="1255.9688" clip-path="url(#clipPath2)" stroke="none">DS-193/25/1</text>
      <path fill="none" d="M542.5 1247.4634 L542.5 1172.5" clip-path="url(#clipPath2)" stroke="red"/>
      <text x="479.4551" xml:space="preserve" y="1214.5352" clip-path="url(#clipPath2)" stroke="none">REC-7-17</text>
      <path fill="none" d="M557.5 1157.5 L750 1157.5" clip-path="url(#clipPath2)" stroke="lime"/>
      <text x="613.4961" xml:space="preserve" y="1150.9688" clip-path="url(#clipPath2)" stroke="none">DS-232/34/1</text>
      <path fill="none" d="M527.453 1157.5 L335 1157.5" clip-path="url(#clipPath2)" stroke="lime"/>
      <text x="390.9961" xml:space="preserve" y="1150.9688" clip-path="url(#clipPath2)" stroke="none">DS-171/22/1</text>
      <path fill="none" d="M542.5 1142.4634 L542.5 1067.5" clip-path="url(#clipPath2)" stroke="lime"/>
      <text x="487.0488" xml:space="preserve" y="1109.5352" clip-path="url(#clipPath2)" stroke="none">DS-96/1</text>
      <path fill="none" d="M542.5 1037.4634 L542.5 962.5" clip-path="url(#clipPath2)" stroke="red"/>
      <text x="389.7363" xml:space="preserve" y="1004.5352" clip-path="url(#clipPath2)" stroke="none">FSW7 S/S Buckingham Pls</text>
      <path fill="none" d="M542.5 1277.5 L542.5 1352.4634" clip-path="url(#clipPath2)" stroke="red"/>
      <text x="479.4551" xml:space="preserve" y="1319.5352" clip-path="url(#clipPath2)" stroke="none">REC-7-11</text>
    </g>
    <g stroke-linecap="round" transform="matrix(1,0,0,1,15,15)" stroke-dashoffset="2" text-rendering="geometricPrecision" shape-rendering="geometricPrecision" stroke-dasharray="0,4" stroke-miterlimit="1.45">
      <path fill="none" d="M542.5 1382.5 L542.5 1410" clip-path="url(#clipPath2)"/>
    </g>
    <g stroke-linecap="butt" transform="matrix(1,0,0,1,15,15)" fill="lime" text-rendering="geometricPrecision" shape-rendering="geometricPrecision" stroke="lime" stroke-miterlimit="1.45">
      <path fill="none" d="M545 1412.5 L690 1412.5" clip-path="url(#clipPath2)"/>
      <text x="577.2461" y="1405.9688" clip-path="url(#clipPath2)" fill="black" font-family="sans-serif" stroke="none" xml:space="preserve">DS-214/29/1</text>
      <path fill="none" d="M542.5 1415 L542.5 1515" clip-path="url(#clipPath2)"/>
      <text x="457.9922" y="1469.5352" clip-path="url(#clipPath2)" fill="black" font-family="sans-serif" stroke="none" xml:space="preserve">DS-144/13/1</text>
      <path fill="none" d="M542.5 1520 L542.5 1620" clip-path="url(#clipPath2)"/>
      <text x="457.9922" y="1574.5352" clip-path="url(#clipPath2)" fill="black" font-family="sans-serif" stroke="none" xml:space="preserve">DS-160/15/1</text>
      <path fill="none" d="M542.5 752.5 L542.5 827.5" clip-path="url(#clipPath2)" stroke="red"/>
      <text x="382.1484" y="794.5352" clip-path="url(#clipPath2)" fill="black" font-family="sans-serif" stroke="none" xml:space="preserve">FSW12 S/S Buckingham Pls</text>
    </g>
    <g stroke-linecap="round" transform="matrix(1,0,0,1,15,15)" stroke-dashoffset="2" fill="red" text-rendering="geometricPrecision" shape-rendering="geometricPrecision" stroke-dasharray="0,4" stroke="red" stroke-miterlimit="1.45">
      <path fill="none" d="M542.5 857.5 L542.5 932.4634" clip-path="url(#clipPath2)"/>
    </g>
    <g text-rendering="geometricPrecision" stroke-miterlimit="1.45" shape-rendering="geometricPrecision" font-family="sans-serif" transform="matrix(1,0,0,1,15,15)" stroke-linecap="butt">
      <text x="506.5957" xml:space="preserve" y="899.5352" clip-path="url(#clipPath2)" stroke="none">SW10</text>
    </g>
    <g stroke-linecap="round" transform="matrix(1,0,0,1,15,15)" stroke-dashoffset="2" fill="red" text-rendering="geometricPrecision" shape-rendering="geometricPrecision" stroke-dasharray="0,4" stroke="red" stroke-miterlimit="1.45">
      <path fill="none" d="M977.4597 117.5 L812.5 117.5 L812.5 512.4518" clip-path="url(#clipPath2)"/>
    </g>
    <g text-rendering="geometricPrecision" stroke-miterlimit="1.45" shape-rendering="geometricPrecision" font-family="sans-serif" transform="matrix(1,0,0,1,15,15)" stroke-linecap="butt">
      <text x="906.3301" xml:space="preserve" y="133.1016" clip-path="url(#clipPath2)" stroke="none">REC-7-14</text>
    </g>
    <g stroke-linecap="round" transform="matrix(1,0,0,1,15,15)" stroke-dashoffset="2" fill="red" text-rendering="geometricPrecision" shape-rendering="geometricPrecision" stroke-dasharray="0,4" stroke="red" stroke-miterlimit="1.45">
      <path fill="none" d="M557.5 527.5 L797.4707 527.5" clip-path="url(#clipPath2)"/>
    </g>
    <g text-rendering="geometricPrecision" stroke-miterlimit="1.45" shape-rendering="geometricPrecision" font-family="sans-serif" transform="matrix(1,0,0,1,15,15)" stroke-linecap="butt">
      <text x="644.1836" xml:space="preserve" y="520.9688" clip-path="url(#clipPath2)" stroke="none">REC-12-20</text>
      <path fill="none" d="M990 527.5 L827.5 527.5" clip-path="url(#clipPath2)" stroke="lime"/>
      <text x="876.084" xml:space="preserve" y="520.9688" clip-path="url(#clipPath2)" stroke="none">DS-59/3/4</text>
      <path fill="none" d="M812.5 542.5 L812.5 1247.457" clip-path="url(#clipPath2)" stroke="red"/>
      <text x="749.4551" xml:space="preserve" y="1232.8438" clip-path="url(#clipPath2)" stroke="none">REC-7-16</text>
    </g>
    <g stroke-linecap="round" transform="matrix(1,0,0,1,15,15)" stroke-dashoffset="2" fill="lime" text-rendering="geometricPrecision" shape-rendering="geometricPrecision" stroke-dasharray="0,4" stroke="lime" stroke-miterlimit="1.45">
      <path fill="none" d="M542.5 425 L542.5 512.4573" clip-path="url(#clipPath2)"/>
    </g>
    <g text-rendering="geometricPrecision" stroke-miterlimit="1.45" shape-rendering="geometricPrecision" font-family="sans-serif" transform="matrix(1,0,0,1,15,15)" stroke-linecap="butt">
      <text x="457.9922" xml:space="preserve" y="497.8438" clip-path="url(#clipPath2)" stroke="none">DS-108/6/13</text>
      <path fill="none" d="M542.5 420 L542.5 320" clip-path="url(#clipPath2)" stroke="lime"/>
      <text x="464.2852" xml:space="preserve" y="374.5352" clip-path="url(#clipPath2)" stroke="none">DS-158/400</text>
    </g>
  </g>
</svg>
